<?xml version="1.0" standalone="no"?>

<!DOCTYPE svg PUBLIC "-//W3C//DTD SVG 20010904//EN"

 "http://www.w3.org/TR/2001/REC-SVG-20010904/DTD/svg10.dtd">

<svg version="1.0" xmlns="http://www.w3.org/2000/svg"

 width="362.000000pt" height="298.000000pt" viewBox="0 0 362.000000 298.000000"

 preserveAspectRatio="xMidYMid meet">

<path fill="#090303" stroke="none" d="
M215 280

C204 273 193 259 191 249

C191 247 190 246 189 245

C189 245 184 246 178 248

C156 254 139 257 118 259

C86 261 62 259 42 251

L35 248

L35 247

L35 246

L36 246

C36 246 39 247 41 248

C48 250 65 252 80 252

C109 252 146 245 181 234

C245 212 298 180 323 148

C333 133 339 116 337 105

C336 100 332 90 331 90

L330 90

L332 95

C335 102 335 115 332 124

C325 144 306 164 278 183

C235 212 167 239 118 246

C85 251 56 250 38 245

C33 243 24 239 20 236

C7 224 5 208 17 191

C33 167 76 141 126 124

C146 118 164 113 177 112

L182 111

L182 112

L182 113

L180 114

C175 115 150 124 139 129

C101 144 76 160 69 176

C66 181 66 190 68 195

C73 204 91 212 111 214

L118 214

L118 215

L118 216

L111 217

C100 218 73 216 66 214

C56 212 54 211 49 207

C44 203 41 196 41 190

C42 182 46 177 57 166

L68 155

L65 157

C57 163 45 174 41 179

C34 188 33 198 38 204

C41 208 50 213 58 215

C78 221 109 220 147 212

C170 207 195 199 216 190

C265 168 304 139 315 114

C320 104 318 94 311 86

C306 80 295 74 290 73

L288 73

L285 81

C284 85 282 91 281 95

L279 102

L276 102

C274 102 265 102 256 103

C247 104 236 104 231 105

L223 105

L223 108

C216 151 215 159 214 172

C213 190 214 188 201 194

C194 196 187 199 186 199

C185 200 183 200 182 200

L181 200

L181 184

C182 168 183 160 185 140

C186 135 187 126 187 122

C188 117 188 111 189 109

L189 106

L178 107

C156 109 135 110 135 110

C135 109 142 79 143 77

C144 77 151 76 161 75

C171 74 182 74 186 73

L194 73

L194 69

C195 66 197 55 199 43

C202 27 204 22 205 21

C207 20 253 7 255 7

L255 7

L255 8

C255 8 253 12 252 16

C247 27 244 34 238 53

C234 62 232 69 232 70

L232 70

L265 70

C296 70 298 70 305 72

C330 79 346 96 346 116

C346 130 338 148 326 164

C306 189 262 217 215 235

L210 237

L210 240

C210 244 214 262 216 268

C217 270 219 274 220 277

L223 283

L222 283

C221 283 218 282 215 280

Z

"/>

<path fill="#08549c" stroke="none" d="
M215 280

C204 273 193 259 191 249

C191 247 190 246 189 245

C189 245 184 246 178 248

C156 254 139 257 118 259

C86 261 62 259 42 251

L35 248

L35 247

L35 246

L36 246

C36 246 39 247 41 248

C48 250 65 252 80 252

C109 252 146 245 181 234

C245 212 298 180 323 148

C333 134 339 116 337 105

C336 100 333 93 331 90

L330 89

L329 90

L328 90

L329 92

L329 93

L330 92

L331 91

L333 96

C335 103 335 116 332 125

L329 132

L328 131

L327 131

L327 132

C328 133 328 134 327 135

L326 137

L325 136

L324 136

L324 137

C325 137 325 139 324 140

L323 142

L322 142

L321 142

L321 144

L321 146

L319 145

L318 145

L318 146

L319 147

L313 154

C282 189 201 229 132 243

C97 251 59 251 38 245

C33 243 24 239 20 236

C7 224 5 208 17 191

C28 176 47 161 79 144

C106 129 151 115 177 112

L182 111

L182 112

L182 113

L180 114

C177 114 153 123 143 127

C112 139 91 151 78 163

C70 172 67 178 67 186

C67 192 69 196 73 201

C81 207 96 212 111 214

L118 214

L118 215

L118 216

L111 217

C100 218 73 216 66 214

C56 212 54 211 49 207

C44 203 41 196 41 190

C42 182 46 177 57 166

L68 155

L65 157

C57 163 45 174 41 179

C34 188 33 198 38 204

C41 208 50 213 58 215

C78 221 109 220 147 212

C170 207 195 199 216 190

C265 169 304 139 315 114

C320 104 318 94 311 86

C306 80 295 74 290 73

L288 73

L285 81

C284 85 282 91 281 95

L279 102

L275 102

C271 102 250 103 231 105

L223 105

L223 108

C222 110 221 119 220 129

C217 149 215 162 214 172

C214 175 214 181 213 184

C213 189 215 188 195 196

C191 197 187 199 186 199

C185 200 183 200 182 200

L181 200

L181 184

C182 168 183 160 185 140

C186 135 187 126 187 122

C188 117 188 111 189 109

L189 106

L178 107

C156 109 135 110 135 110

C135 109 142 79 143 77

C144 77 151 76 161 75

C171 74 182 74 186 73

L194 73

L195 65

C196 61 197 56 197 54

C198 52 199 44 201 36

C204 20 203 21 212 19

C215 18 226 15 236 12

C246 9 255 7 255 7

L255 8

L251 18

C246 29 240 43 235 60

C233 65 232 69 232 70

L232 70

L265 70

C301 69 303 70 317 76

L323 79

L323 80

L322 81

L324 82

L326 84

L324 82

L323 80

L324 80

C325 80 334 88 337 91

C341 96 343 101 345 107

C349 122 342 144 326 164

C306 189 262 217 215 235

L210 237

L210 240

C210 244 214 262 216 268

C217 270 219 274 220 277

L223 283

L222 283

C221 283 218 282 215 280

Z

M334 112

C334 109 334 105 333 103

L332 99

L333 104

C333 107 332 113 332 117

C331 120 330 125 330 126

L329 129

L331 123

C332 119 333 114 334 112

Z

M331 95

L330 94

L330 94

C330 95 330 96 331 96

L331 98

L332 98

L332 97

L331 95

Z

"/>

<path fill="#01ff00" stroke="none" d="
M215 280

C209 276 200 268 198 264

L196 261

L198 263

C201 268 211 277 217 280

L223 283

L222 283

C221 283 218 282 215 280

Z

M219 276

C218 274 217 272 217 271

L217 271

L218 272

C219 273 220 276 221 278

L222 281

L221 281

L221 281

L219 276

Z

M215 267

C215 265 214 263 214 263

L214 262

L216 265

C216 268 217 270 217 270

L216 270

L215 267

Z

M213 258

C212 256 212 255 212 254

L213 254

L213 257

C214 259 214 261 214 261

L213 261

L213 258

Z

M78 259

L73 259

L99 259

L125 259

L116 259

C106 260 84 260 78 259

Z

M194 259

L194 258

L194 257

L195 257

L195 258

L196 260

L196 260

C195 260 195 260 194 259

Z

M63 257

L61 256

L63 256

C64 256 66 257 68 257

L71 258

L68 258

C66 258 64 257 63 257

Z

M132 257

C134 256 136 256 138 256

L140 256

L137 257

C135 257 132 258 131 258

L128 258

L132 257

Z

M55 255

L53 254

L54 254

C55 254 56 255 58 255

L60 256

L58 256

C57 256 56 255 55 255

Z

M144 255

C145 255 148 254 149 254

L152 254

L149 255

C147 255 144 256 143 256

L141 256

L144 255

Z

M47 253

L44 251

L45 251

C45 251 47 252 49 253

L53 254

L51 254

C50 254 48 253 47 253

Z

M155 253

C156 253 158 252 159 252

L161 252

L159 253

C157 253 156 254 155 254

L153 254

L155 253

Z

M192 251

C191 250 191 249 191 248

L192 248

L192 251

C193 252 193 253 193 254

L192 254

L192 251

Z

M60 252

L56 251

L60 251

C62 251 64 251 65 252

L67 253

L66 253

C65 253 62 252 60 252

Z

M74 252

C78 252 84 252 88 252

L96 253

L81 253

L67 253

L74 252

Z

M211 249

C210 247 210 246 210 245

L211 245

L211 249

C212 251 212 252 212 253

L211 253

L211 249

Z

M96 252

C96 251 101 251 106 251

L115 250

L110 251

C107 251 103 252 100 252

L96 252

L96 252

Z

M162 251

C162 251 164 251 164 251

L166 252

L163 252

L161 252

L162 251

Z

M38 249

C36 248 35 247 35 247

L35 246

L36 246

C37 246 38 246 39 247

L41 248

L40 248

L39 248

L41 250

L44 251

L43 251

C42 251 40 250 38 249

Z

M45 250

L42 249

L42 248

L42 248

L44 249

C45 249 48 250 51 250

L56 251

L52 251

C50 251 47 250 45 250

Z

M168 250

C169 250 170 249 171 249

L173 249

L171 250

C169 250 168 251 167 251

L166 251

L168 250

Z

M64 249

C46 248 29 243 20 236

C7 224 5 208 17 191

C21 185 32 174 42 166

C52 158 82 142 98 135

C124 124 158 114 177 112

L182 111

L182 112

L182 113

L178 114

C161 119 125 134 113 140

C92 151 74 165 69 176

C66 182 66 190 68 195

C73 204 91 212 111 214

L118 214

L118 215

L118 216

L111 217

C100 218 73 216 66 214

C56 212 54 211 49 207

C44 203 41 196 41 190

C42 182 46 177 57 166

L68 155

L65 157

C50 167 38 180 36 188

C33 198 37 206 47 211

C55 215 59 216 71 218

C92 221 124 218 159 209

C212 196 265 169 296 139

C314 121 320 108 317 95

C315 89 308 81 299 77

C296 75 291 73 290 73

L288 73

L286 79

C285 83 283 89 282 94

L279 102

L275 102

C266 102 238 104 231 105

L223 105

L223 108

C222 110 221 118 220 126

C217 148 214 171 214 177

C214 179 214 183 213 185

C213 189 214 188 193 196

C188 198 183 200 182 200

L181 200

L181 184

C182 168 183 160 185 140

C186 135 187 126 187 122

C188 117 188 111 189 109

L189 106

L178 107

C159 108 136 110 135 110

C135 109 142 79 143 77

C144 77 151 76 162 75

C172 74 183 74 187 73

L194 73

L196 61

C201 34 203 22 204 22

C205 21 210 19 228 14

C248 9 254 7 255 8

L255 8

L252 16

C250 20 247 27 245 31

C242 39 232 69 232 70

L232 71

L246 70

C267 68 297 69 304 72

C311 73 323 78 323 79

L323 80

L321 79

L320 79

L324 82

C326 84 328 85 328 86

L329 86

L327 86

L326 85

L329 87

L332 90

L331 92

L331 93

L332 93

L333 92

L334 95

C335 97 336 98 336 99

L336 100

L334 96

L332 93

L333 94

C336 105 336 114 332 125

L329 132

L328 131

L327 131

L327 132

C328 133 328 134 327 135

L326 137

L325 136

L324 136

L324 137

C325 137 325 139 324 140

L323 142

L322 142

L321 142

L321 144

L321 146

L319 145

L318 145

L318 146

L319 147

L313 154

C289 181 236 211 176 231

C160 237 134 244 118 246

C101 248 77 250 64 249

Z

M74 151

L74 151

L72 152

C71 153 70 154 69 154

L69 155

L71 153

C73 153 74 152 74 151

Z

M334 112

C334 109 334 105 333 103

L332 99

L333 104

C333 107 332 113 332 117

C331 120 330 125 330 126

L329 129

L331 123

C332 119 333 114 334 112

Z

M331 95

L330 94

L330 94

C330 95 330 96 331 96

L331 98

L332 98

L332 97

L331 95

Z

M330 90

L330 89

L329 90

L328 90

L329 92

L329 93

L330 92

C331 91 331 90 330 90

Z

M119 249

C121 248 123 248 125 248

L127 248

L124 249

C122 249 119 250 118 250

L115 250

L119 249

Z

M175 248

C176 248 177 247 178 247

L180 247

L178 248

C176 248 175 249 174 249

L173 249

L175 248

Z

M131 247

C132 247 134 246 136 246

L138 246

L135 247

C134 247 131 248 130 248

L128 248

L131 247

Z

M182 246

C183 246 184 245 185 245

L187 245

L185 246

C183 246 182 247 181 247

L180 247

L182 246

Z

M141 245

C142 245 143 244 145 244

L147 244

L144 245

C143 245 141 246 140 246

L139 246

L141 245

Z

M189 245

L187 244

L189 244

L191 244

L191 245

L191 246

L191 246

C191 246 190 245 189 245

Z

M155 241

C160 240 164 239 165 239

L167 239

L159 242

C154 243 150 244 149 244

L147 244

L155 241

Z

M209 240

C209 237 210 236 218 233

L227 229

L228 229

L228 230

L221 233

C218 234 214 236 212 236

C211 237 210 238 210 240

L209 243

L209 240

Z

M168 238

C169 237 170 237 171 237

L173 237

L171 238

C170 239 169 239 168 239

L167 239

L168 238

Z

M175 236

C176 236 177 235 178 235

L179 235

L177 236

C176 237 175 237 174 237

L173 237

L175 236

Z

M180 234

C181 233 182 233 183 233

L185 233

L183 234

C181 234 180 235 180 235

L179 235

L180 234

Z

M191 231

C192 230 195 229 196 229

L199 228

L196 229

C194 230 191 231 190 231

L188 232

L191 231

Z

M230 228

C231 227 232 227 233 227

L234 227

L232 228

C231 229 230 229 230 229

L229 229

L230 228

Z

M200 227

C201 226 202 226 203 226

L204 226

L202 227

C201 228 200 228 200 228

L199 228

L200 227

Z

M234 227

C234 226 239 224 245 221

L255 216

L255 216

C255 217 235 227 234 227

L234 227

L234 227

Z

M205 225

C206 224 207 224 208 224

L209 224

L207 225

C206 226 205 226 205 226

L204 226

L205 225

Z

M210 223

C211 222 212 222 213 222

L214 222

L212 223

C211 224 210 224 210 224

L209 224

L210 223

Z

M216 221

C217 220 219 219 220 219

L221 219

L218 221

C217 221 215 222 215 222

L214 222

L216 221

Z

M224 217

C226 216 228 215 229 215

L230 215

L226 217

C224 218 222 219 222 219

L221 219

L224 217

Z

M256 216

C256 215 261 213 267 209

C295 193 313 178 330 157

L333 154

L332 155

C331 158 320 171 315 176

C307 183 295 192 285 199

C276 205 257 216 256 216

L256 216

L256 216

Z

M230 215

C230 214 232 213 235 212

L239 210

L239 210

C239 211 231 215 230 215

L230 215

L230 215

Z

M241 209

C241 209 243 208 244 207

L247 206

L247 206

C247 207 241 210 240 210

L240 210

L241 209

Z

M248 206

C248 205 251 203 256 201

C291 182 319 157 330 135

L333 129

L334 129

L334 130

L331 136

C319 158 292 182 256 202

L248 206

L248 206

Z

M335 150

C335 148 336 147 337 147

L337 147

L336 150

C335 152 334 153 333 153

L333 153

L335 150

Z

M338 145

L338 143

L339 143

L339 144

L338 145

L337 147

L338 145

Z

M340 141

C340 139 341 136 342 133

L344 128

L344 131

C343 133 342 136 341 138

L339 143

L340 141

Z

M335 127

C335 125 336 122 337 119

L338 113

L338 117

C337 120 336 123 336 125

L334 129

L335 127

Z

M344 117

L345 106

L345 108

C346 111 346 121 345 125

L344 128

L344 117

Z

M337 106

L337 103

L338 104

C338 105 338 107 338 107

L337 109

L337 106

Z

M343 104

C343 104 343 102 342 101

L342 100

L343 101

C344 102 344 104 344 104

L343 106

L343 104

Z

M339 95

L337 92

L338 93

C339 93 340 94 341 96

L342 99

L342 99

C341 99 340 97 339 95

Z

M333 88

C332 87 329 84 327 83

L324 80

L326 81

C327 81 330 84 333 86

L338 91

L337 91

C337 91 335 90 333 88

Z

"/>

<path fill="#9f4029" stroke="none" d="
M215 280

C209 276 200 268 198 264

L196 261

L198 263

C201 268 211 277 217 280

L223 283

L222 283

C221 283 218 282 215 280

Z

M219 276

C218 274 217 272 217 271

L217 271

L218 272

C219 273 220 276 221 278

L222 281

L221 281

L221 281

L219 276

Z

M215 267

C215 265 214 263 214 263

L214 262

L216 265

C216 268 217 270 217 270

L216 270

L215 267

Z

M213 258

C212 256 212 255 212 254

L213 254

L213 257

C214 259 214 261 214 261

L213 261

L213 258

Z

M78 259

L73 259

L99 259

L125 259

L116 259

C106 260 84 260 78 259

Z

M194 259

L194 258

L194 257

L195 257

L195 258

L196 260

L196 260

C195 260 195 260 194 259

Z

M63 257

L61 256

L63 256

C64 256 66 257 68 257

L71 258

L68 258

C66 258 64 257 63 257

Z

M132 257

C134 256 136 256 138 256

L140 256

L137 257

C135 257 132 258 131 258

L128 258

L132 257

Z

M55 255

L53 254

L54 254

C55 254 56 255 58 255

L60 256

L58 256

C57 256 56 255 55 255

Z

M144 255

C145 255 148 254 149 254

L152 254

L149 255

C147 255 144 256 143 256

L141 256

L144 255

Z

M47 253

L44 251

L45 251

C45 251 47 252 49 253

L53 254

L51 254

C50 254 48 253 47 253

Z

M155 253

C156 253 158 252 159 252

L161 252

L159 253

C157 253 156 254 155 254

L153 254

L155 253

Z

M192 251

C191 250 191 249 191 248

L192 248

L192 251

C193 252 193 253 193 254

L192 254

L192 251

Z

M60 252

L56 251

L60 251

C62 251 64 251 65 252

L67 253

L66 253

C65 253 62 252 60 252

Z

M74 252

C78 252 84 252 88 252

L96 253

L81 253

L67 253

L74 252

Z

M211 249

C210 247 210 246 210 245

L211 245

L211 249

C212 251 212 252 212 253

L211 253

L211 249

Z

M96 252

C96 251 101 251 106 251

L115 250

L110 251

C107 251 103 252 100 252

L96 252

L96 252

Z

M162 251

C162 251 164 251 164 251

L166 252

L163 252

L161 252

L162 251

Z

M38 249

C36 248 35 247 35 247

L35 246

L36 246

C37 246 38 246 39 247

L41 248

L40 248

L39 248

L41 250

L44 251

L43 251

C42 251 40 250 38 249

Z

M45 250

L42 249

L42 248

L42 248

L44 249

C45 249 48 250 51 250

L56 251

L52 251

C50 251 47 250 45 250

Z

M168 250

C169 250 170 249 171 249

L173 249

L171 250

C169 250 168 251 167 251

L166 251

L168 250

Z

M64 249

C46 248 29 243 20 236

C7 224 5 208 17 191

C21 185 32 174 42 166

C52 158 82 142 98 135

C124 124 158 114 177 112

L182 111

L182 112

L182 113

L178 114

C161 119 125 134 113 140

C92 151 74 165 69 176

C66 182 66 190 68 195

C73 204 91 212 111 214

L118 214

L118 215

L118 216

L111 217

C100 218 73 216 66 214

C56 212 54 211 49 207

C44 203 41 196 41 190

C42 182 46 177 57 166

L68 155

L65 157

C50 167 38 180 36 188

C33 198 37 206 47 211

C55 215 59 216 71 218

C92 221 124 218 159 209

C212 196 265 169 296 139

C314 121 320 108 317 95

C315 89 308 81 299 77

C296 75 291 73 290 73

L288 73

L286 79

C285 83 283 89 282 94

L279 102

L275 102

C266 102 238 104 231 105

L223 105

L223 108

C222 110 221 118 220 126

C217 148 214 171 214 177

C214 179 214 183 213 185

C213 189 214 188 193 196

C188 198 183 200 182 200

L181 200

L181 184

C182 168 183 160 185 140

C186 135 187 126 187 122

C188 117 188 111 189 109

L189 106

L178 107

C159 108 136 110 135 110

C135 109 142 79 143 77

C144 77 151 76 162 75

C172 74 183 74 187 73

L194 73

L196 61

C201 34 203 22 204 22

C205 21 210 19 228 14

C248 9 254 7 255 8

L255 8

L252 16

C250 20 247 27 245 31

C242 39 232 69 232 70

L232 71

L246 70

C267 68 297 69 304 72

C311 73 323 78 323 79

L323 80

L321 79

L320 79

L326 84

C329 88 331 91 331 92

L331 93

L332 93

L333 92

L334 95

C335 97 336 98 336 99

L336 100

L334 96

L332 93

L333 95

C333 96 334 99 334 102

C336 107 335 116 332 125

L329 132

L328 131

L327 131

L327 132

C328 133 328 134 327 135

L326 137

L325 136

L324 136

L324 137

C325 137 325 139 324 140

L323 142

L322 142

L321 142

L321 144

L321 146

L319 145

L318 145

L318 146

L319 147

L313 154

C289 181 236 211 176 231

C160 237 134 244 118 246

C101 248 77 250 64 249

Z

M74 151

L74 151

L72 152

C71 153 70 154 69 154

L69 155

L71 153

C73 153 74 152 74 151

Z

M334 112

C334 109 334 105 333 103

L332 99

L333 104

C333 107 332 113 332 117

C331 120 330 125 330 126

L329 129

L331 123

C332 119 333 114 334 112

Z

M331 95

L330 94

L330 94

C330 95 330 96 331 96

L331 98

L332 98

L332 97

L331 95

Z

M330 90

L330 89

L329 90

L328 90

L329 92

L329 93

L330 92

C331 91 331 90 330 90

Z

M119 249

C121 248 123 248 125 248

L127 248

L124 249

C122 249 119 250 118 250

L115 250

L119 249

Z

M175 248

C176 248 177 247 178 247

L180 247

L178 248

C176 248 175 249 174 249

L173 249

L175 248

Z

M131 247

C132 247 134 246 136 246

L138 246

L135 247

C134 247 131 248 130 248

L128 248

L131 247

Z

M182 246

C183 246 184 245 185 245

L187 245

L185 246

C183 246 182 247 181 247

L180 247

L182 246

Z

M141 245

C142 245 143 244 145 244

L147 244

L144 245

C143 245 141 246 140 246

L139 246

L141 245

Z

M189 245

L187 244

L189 244

L191 244

L191 245

L191 246

L191 246

C191 246 190 245 189 245

Z

M155 241

C160 240 164 239 165 239

L167 239

L159 242

C154 243 150 244 149 244

L147 244

L155 241

Z

M209 240

C209 237 210 236 218 233

L227 229

L228 229

L228 230

L221 233

C218 234 214 236 212 236

C211 237 210 238 210 240

L209 243

L209 240

Z

M168 238

C169 237 170 237 171 237

L173 237

L171 238

C170 239 169 239 168 239

L167 239

L168 238

Z

M175 236

C176 236 177 235 178 235

L179 235

L177 236

C176 237 175 237 174 237

L173 237

L175 236

Z

M180 234

C181 233 182 233 183 233

L185 233

L183 234

C181 234 180 235 180 235

L179 235

L180 234

Z

M191 231

C192 230 195 229 196 229

L199 228

L196 229

C194 230 191 231 190 231

L188 232

L191 231

Z

M230 228

C231 227 232 227 233 227

L234 227

L232 228

C231 229 230 229 230 229

L229 229

L230 228

Z

M200 227

C201 226 202 226 203 226

L204 226

L202 227

C201 228 200 228 200 228

L199 228

L200 227

Z

M234 227

C234 226 239 224 245 221

L255 216

L255 216

C255 217 235 227 234 227

L234 227

L234 227

Z

M205 225

C206 224 207 224 208 224

L209 224

L207 225

C206 226 205 226 205 226

L204 226

L205 225

Z

M210 223

C211 222 212 222 213 222

L214 222

L212 223

C211 224 210 224 210 224

L209 224

L210 223

Z

M216 221

C217 220 219 219 220 219

L221 219

L218 221

C217 221 215 222 215 222

L214 222

L216 221

Z

M224 217

C226 216 228 215 229 215

L230 215

L226 217

C224 218 222 219 222 219

L221 219

L224 217

Z

M256 216

C256 215 261 213 267 209

C295 193 313 178 330 157

L333 154

L332 155

C331 158 320 171 315 176

C307 183 295 192 285 199

C276 205 257 216 256 216

L256 216

L256 216

Z

M230 215

C230 214 232 213 235 212

L239 210

L239 210

C239 211 231 215 230 215

L230 215

L230 215

Z

M241 209

C241 209 243 208 244 207

L247 206

L247 206

C247 207 241 210 240 210

L240 210

L241 209

Z

M248 206

C248 205 251 203 256 201

C291 182 319 157 330 135

L333 129

L334 129

L334 130

L331 136

C319 158 292 182 256 202

L248 206

L248 206

Z

M335 150

C335 148 336 147 337 147

L337 147

L336 150

C335 152 334 153 333 153

L333 153

L335 150

Z

M338 145

L338 143

L339 143

L339 144

L338 145

L337 147

L338 145

Z

M340 141

C340 139 341 136 342 133

L344 128

L344 131

C343 133 342 136 341 138

L339 143

L340 141

Z

M335 127

C335 125 336 122 337 119

L338 113

L338 117

C337 120 336 123 336 125

L334 129

L335 127

Z

M344 117

L345 106

L345 108

C346 111 346 121 345 125

L344 128

L344 117

Z

M337 106

L337 103

L338 104

C338 105 338 107 338 107

L337 109

L337 106

Z

M343 104

C343 104 343 102 342 101

L342 100

L343 101

C344 102 344 104 344 104

L343 106

L343 104

Z

M339 95

L337 92

L338 93

C339 93 340 94 341 96

L342 99

L342 99

C341 99 340 97 339 95

Z

M333 88

C332 87 329 84 327 83

L324 80

L326 81

C327 81 330 84 333 86

L338 91

L337 91

C337 91 335 90 333 88

Z

"/>

<path fill="#829db9" stroke="none" d="
M215 280

C212 278 208 275 205 272

L200 267

L205 272

C208 274 214 278 217 280

L223 283

L222 283

C221 283 218 282 215 280

Z

M219 276

L217 272

L217 271

L218 271

L220 276

L222 281

L221 281

L221 281

L219 276

Z

M215 265

C214 264 214 263 214 262

L215 262

L215 265

C216 266 216 267 216 268

L215 268

L215 265

Z

M198 265

C198 264 197 263 197 262

L196 261

L196 261

C197 261 198 262 198 264

L200 266

L200 266

C199 266 199 265 198 265

Z

M213 258

C212 257 212 256 212 255

L213 255

L213 258

C214 259 214 260 214 261

L213 261

L213 258

Z

M83 260

C83 259 93 259 104 259

L124 258

L116 259

C112 259 103 260 96 260

L83 260

L83 260

Z

M194 259

L194 258

L194 257

L195 257

L195 258

L196 260

L196 260

C195 260 195 260 194 259

Z

M76 258

C77 258 79 258 80 258

L83 259

L78 259

L74 259

L76 258

Z

M63 257

L61 256

L63 256

C64 256 66 257 68 257

L71 258

L68 258

C67 258 64 257 63 257

Z

M132 257

C134 256 136 256 138 256

L140 256

L137 257

C135 257 132 258 131 258

L128 258

L132 257

Z

M55 255

L53 254

L54 254

C55 254 56 255 58 255

L60 256

L58 256

C57 256 56 255 55 255

Z

M144 255

C145 255 148 254 149 254

L152 254

L149 255

C147 255 144 256 143 256

L141 256

L144 255

Z

M155 253

C156 253 158 252 159 252

L161 252

L159 253

C157 253 156 254 155 254

L153 254

L155 253

Z

M192 251

C191 250 191 249 191 248

L192 248

L192 251

C193 252 193 253 193 254

L192 254

L192 251

Z

M74 252

C78 252 84 252 88 252

L96 253

L81 253

L67 253

L74 252

Z

M211 251

L211 250

L212 251

L212 252

L212 253

L211 253

L211 251

Z

M58 251

C59 251 61 251 62 251

L64 252

L60 252

L56 252

L58 251

Z

M99 251

C101 251 103 251 104 251

L107 252

L102 252

L97 252

L99 251

Z

M162 251

L163 251

L164 251

L164 252

L162 252

L161 252

L162 251

Z

M45 250

L42 249

L42 249

C42 248 45 249 49 250

L55 251

L52 251

C50 251 47 250 45 250

Z

M109 250

C110 250 112 250 113 250

L115 251

L111 251

L108 251

L109 250

Z

M168 250

C169 250 170 249 171 249

L173 249

L171 250

C169 250 168 251 167 251

L166 251

L168 250

Z

M70 249

C71 249 73 249 74 249

L76 250

L72 250

L69 250

L70 249

Z

M117 249

C118 249 120 249 120 249

L122 250

L119 250

L116 250

L117 249

Z

M36 248

L35 247

L35 246

C36 246 37 246 38 246

L40 247

L39 248

C39 249 38 249 36 248

Z

M52 248

L49 247

L55 248

C58 248 61 248 61 249

L61 249

L58 249

C56 249 53 248 52 248

Z

M89 248

C91 248 93 248 94 248

L97 249

L92 249

L87 249

L89 248

Z

M123 248

C123 248 125 248 125 248

L127 249

L124 249

L122 249

L123 248

Z

M175 248

C176 248 177 247 178 247

L180 247

L178 248

C176 248 175 249 174 249

L173 249

L175 248

Z

M210 247

L210 245

L211 246

C211 246 211 248 211 248

L210 250

L210 247

Z

M99 247

C100 247 102 247 103 247

L106 248

L101 248

L97 248

L99 247

Z

M131 247

C132 247 134 246 136 246

L138 246

L135 247

C134 247 132 248 131 248

L129 248

L131 247

Z

M44 246

L45 246

L46 246

L46 247

L44 247

L43 247

L44 246

Z

M112 246

C114 245 117 245 118 245

L121 245

L117 246

C114 247 111 247 110 247

L108 247

L112 246

Z

M182 246

C183 246 184 245 185 245

L187 245

L185 246

C183 246 182 247 181 247

L180 247

L182 246

Z

M141 245

C142 245 143 244 145 244

L147 244

L144 245

C143 245 141 246 140 246

L139 246

L141 245

Z

M35 244

L34 243

L35 243

C35 243 36 243 37 244

L39 245

L38 245

C37 245 36 245 35 244

Z

M125 244

C126 244 128 243 130 243

L132 243

L129 244

C128 244 126 245 125 245

L123 245

L125 244

Z

M149 243

C150 243 152 242 154 242

L156 242

L153 243

C152 243 150 244 149 244

L147 244

L149 243

Z

M134 242

L135 242

L136 242

L136 243

L134 243

L133 243

L134 242

Z

M209 241

L209 239

L210 240

C210 240 210 242 210 242

L209 244

L209 241

Z

M27 240

L26 239

L28 240

C29 241 31 241 31 242

L31 242

L30 242

C30 242 29 241 27 240

Z

M139 241

C140 241 142 240 143 240

L145 240

L143 241

C141 241 140 242 139 242

L137 242

L139 241

Z

M158 241

C159 241 160 240 161 240

L163 240

L161 241

C159 241 158 242 157 242

L156 242

L158 241

Z

M148 239

C149 239 150 238 151 238

L153 238

L151 239

C149 239 148 240 147 240

L146 240

L148 239

Z

M164 239

L165 239

L166 239

L166 240

L164 240

L163 240

L164 239

Z

M169 238

C170 238 171 237 172 237

L173 237

L171 238

C170 239 169 239 168 239

L167 239

L169 238

Z

M156 237

C157 237 158 236 159 236

L161 236

L159 237

C157 237 156 238 155 238

L154 238

L156 237

Z

M210 237

C212 236 213 235 213 235

L214 235

L214 235

C214 236 212 236 211 237

L209 238

L210 237

Z

M18 233

L15 230

L18 233

C20 235 22 237 22 237

L22 237

L22 237

C22 237 20 235 18 233

Z

M175 236

C176 236 177 235 178 235

L179 235

L177 236

C176 237 175 237 174 237

L173 237

L175 236

Z

M167 233

C171 232 175 231 175 231

L177 231

L170 234

C166 235 162 236 162 236

L161 236

L167 233

Z

M216 234

C217 233 218 233 219 233

L220 233

L218 234

C217 235 216 235 216 235

L215 235

L216 234

Z

M220 233

L220 232

L222 232

L223 231

L222 232

C222 233 221 233 221 233

L220 233

L220 233

Z

M178 230

C179 229 180 229 181 229

L182 229

L180 230

C179 231 178 231 178 231

L177 231

L178 230

Z

M225 230

C226 229 227 229 228 229

L229 229

L227 230

C226 231 225 231 225 231

L224 231

L225 230

Z

M195 229

C196 228 197 228 198 228

L199 228

L197 229

C196 230 195 230 195 230

L194 230

L195 229

Z

M184 228

C185 228 186 227 187 227

L188 227

L186 228

C185 229 184 229 183 229

L182 229

L184 228

Z

M230 228

C231 227 232 227 233 227

L234 227

L232 228

C231 229 230 229 230 229

L229 229

L230 228

Z

M200 227

C201 226 202 226 203 226

L204 226

L202 227

C201 228 200 228 200 228

L199 228

L200 227

Z

M189 226

C190 225 191 225 192 225

L193 225

L191 226

C190 227 189 227 189 227

L188 227

L189 226

Z

M234 227

C234 226 236 226 237 225

L240 224

L238 225

C236 226 235 227 235 227

L234 227

L234 227

Z

M11 224

C10 223 10 221 10 221

L11 220

L12 223

L13 226

L12 226

C12 226 12 225 11 224

Z

M205 225

C206 224 207 224 208 224

L209 224

L207 225

C206 226 205 226 205 226

L204 226

L205 225

Z

M194 224

C195 224 197 223 198 223

L201 222

L199 223

C198 223 196 224 195 224

L193 225

L194 224

Z

M210 223

C211 222 212 222 213 222

L214 222

L212 223

C211 224 210 224 210 224

L209 224

L210 223

Z

M240 224

C240 223 243 222 247 220

L253 217

L253 217

C253 218 241 224 240 224

L240 224

L240 224

Z

M202 221

C203 220 204 220 205 220

L206 220

L204 221

C203 222 202 222 202 222

L201 222

L202 221

Z

M216 221

C217 220 219 219 220 219

L221 219

L218 221

C217 221 215 222 215 222

L214 222

L216 221

Z

M211 217

L216 215

L217 215

L217 216

L213 217

C210 218 208 219 207 220

L206 220

L211 217

Z

M9 213

L9 207

L10 210

C10 212 10 214 10 216

L9 220

L9 213

Z

M69 218

L66 217

L72 218

C75 218 78 218 78 219

L78 219

L75 219

C73 219 70 218 69 218

Z

M104 218

C106 218 108 218 109 218

L112 219

L107 219

L102 219

L104 218

Z

M224 217

C226 216 228 215 229 215

L230 215

L226 217

C224 218 222 219 222 219

L221 219

L224 217

Z

M96 217

L80 216

L95 216

C104 216 113 217 116 217

L121 218

L117 218

C114 218 105 217 96 217

Z

M59 216

L57 215

L58 215

C59 215 60 216 62 216

L64 217

L62 217

C61 217 60 216 59 216

Z

M124 216

C125 216 127 216 127 216

L129 217

L126 217

L123 217

L124 216

Z

M72 215

C73 215 75 215 75 215

L77 216

L74 216

L71 216

L72 215

Z

M115 215

L113 214

L115 214

L118 214

L118 215

L118 216

L117 216

C117 216 116 215 115 215

Z

M130 215

C131 215 133 215 133 215

L135 216

L132 216

L129 216

L130 215

Z

M68 214

L69 214

L70 214

L70 215

L68 215

L67 215

L68 214

Z

M136 214

C136 214 138 214 138 214

L140 215

L137 215

L135 215

L136 214

Z

M221 213

C223 212 225 211 226 211

L227 211

L223 213

C221 214 219 215 219 215

L218 215

L221 213

Z

M230 215

C230 214 232 213 235 212

L239 210

L239 210

C239 211 231 215 230 215

L230 215

L230 215

Z

M258 215

C258 214 259 213 261 213

L264 211

L264 211

C264 212 263 213 261 214

L258 215

L258 215

Z

M50 213

L49 212

L50 212

C50 212 51 212 52 213

L54 214

L53 214

C52 214 51 214 50 213

Z

M104 213

C105 213 107 213 107 213

L109 214

L106 214

L103 214

L104 213

Z

M141 213

C141 213 143 213 143 213

L145 214

L142 214

L140 214

L141 213

Z

M58 212

L57 211

L58 211

C58 211 59 212 61 212

L63 213

L61 213

C60 213 59 213 58 212

Z

M100 212

L101 212

L102 212

L102 213

L100 213

L99 213

L100 212

Z

M146 212

L147 212

L148 212

L148 213

L146 213

L145 213

L146 212

Z

M46 211

L45 210

L46 210

C46 210 47 210 48 211

L48 212

L48 212

C48 212 47 212 46 211

Z

M93 211

L91 210

L92 210

C93 210 94 211 96 211

L98 212

L96 212

C95 212 94 211 93 211

Z

M152 211

C153 211 155 210 157 210

L159 210

L156 211

C155 211 153 212 152 212

L150 212

L152 211

Z

M54 210

L53 209

L54 210

L56 210

L56 211

L56 211

L55 211

C55 211 54 211 54 210

Z

M161 209

C162 209 163 208 164 208

L166 208

L164 209

C162 209 161 210 160 210

L159 210

L161 209

Z

M240 210

C240 209 242 209 244 208

L247 206

L247 206

C247 207 241 210 240 210

L240 210

L240 210

Z

M268 209

C268 209 270 207 273 206

L277 204

L275 205

C273 206 271 208 270 209

L267 210

L268 209

Z

M48 206

C46 205 44 202 43 201

L42 198

L42 197

L43 197

L44 199

C44 200 46 203 48 205

L52 209

L52 209

C52 209 50 208 48 206

Z

M231 209

L231 208

L233 208

L234 207

L233 208

C233 209 232 209 232 209

L231 209

L231 209

Z

M39 206

C38 205 37 204 37 203

L36 202

L36 202

C36 202 38 203 39 205

L41 208

L41 208

C40 208 40 207 39 206

Z

M169 207

C170 207 171 206 172 206

L174 206

L172 207

C170 207 169 208 168 208

L167 208

L169 207

Z

M235 207

C235 206 237 205 240 204

L244 202

L244 202

C244 203 236 207 235 207

L235 207

L235 207

Z

M77 204

C75 203 72 201 71 199

L69 197

L73 200

C75 202 78 204 79 205

L81 206

L80 206

C80 206 78 205 77 204

Z

M249 205

L250 204

L251 204

L251 205

L249 205

L248 206

L249 205

Z

M10 205

C10 204 10 203 11 202

L12 201

L12 202

C12 202 12 203 11 204

L10 206

L10 205

Z

M181 204

L181 203

L187 201

C191 200 194 199 194 199

L194 200

L189 202

C186 203 183 203 182 204

L181 204

L181 204

Z

M252 204

C252 203 253 202 255 202

L258 200

L258 200

C258 201 257 202 255 203

L252 204

L252 204

Z

M245 202

L245 201

L247 201

L248 200

L247 201

C247 202 246 202 246 202

L245 202

L245 202

Z

M280 202

C280 201 283 200 286 198

L292 194

L289 196

C287 198 285 199 283 200

L280 202

L280 202

Z

M35 199

C34 197 34 191 35 189

L36 187

L36 194

L36 201

L35 201

L35 201

L35 199

Z

M12 199

C12 199 13 198 14 196

L15 195

L14 197

C13 198 13 200 12 200

L12 200

L12 199

Z

M181 190

L181 179

L182 184

C182 187 182 192 182 195

L181 201

L181 190

Z

M184 199

C185 198 186 198 187 198

L188 198

L186 199

C185 200 184 200 184 200

L183 200

L184 199

Z

M196 198

C197 198 199 197 200 197

L203 196

L201 197

C200 197 198 198 197 198

L195 199

L196 198

Z

M261 199

C261 198 262 198 263 197

L265 196

L265 196

C265 197 264 197 263 198

L261 199

L261 199

Z

M253 198

C253 197 254 196 256 196

L259 194

L259 194

C259 195 258 196 256 197

L253 198

L253 198

Z

M41 193

L41 189

L42 191

C42 192 42 194 42 195

L41 197

L41 193

Z

M67 195

L67 194

L67 193

L68 193

L68 194

L69 196

L69 196

C68 196 68 196 67 195

Z

M266 196

C266 195 267 195 268 194

L270 193

L270 193

C270 194 269 194 268 195

L266 196

L266 196

Z

M207 194

C208 193 209 193 210 193

L211 193

L209 194

C208 195 207 195 207 195

L206 195

L207 194

Z

M260 194

C260 193 261 193 262 192

L264 191

L264 191

C264 192 263 192 262 193

L260 194

L260 194

Z

M292 194

C292 193 293 193 294 192

L296 191

L294 192

C293 193 293 194 292 194

L292 194

L292 194

Z

M203 192

C204 191 205 191 206 191

L207 191

L205 192

C204 193 203 193 203 193

L202 193

L203 192

Z

M66 189

C65 187 65 184 66 183

L67 180

L67 186

L67 192

L66 192

L66 192

L66 189

Z

M216 190

C218 189 220 188 221 188

L222 188

L218 190

C216 191 214 192 214 192

L213 192

L216 190

Z

M208 190

C209 189 210 189 211 189

L212 189

L210 190

C209 191 208 191 208 191

L207 191

L208 190

Z

M265 191

C265 190 267 189 268 188

C270 187 273 185 275 185

L278 183

L275 185

C274 186 271 188 269 189

L265 191

L265 191

Z

M296 191

C296 190 297 190 298 189

L300 188

L298 189

C297 190 297 191 296 191

L296 191

L296 191

Z

M213 182

C213 178 213 174 214 174

L214 174

L214 179

C214 181 213 185 213 187

L212 190

L213 182

Z

M277 189

C277 188 279 187 282 185

C285 183 289 180 290 179

L293 177

L293 177

C293 178 284 185 280 187

L277 189

L277 189

Z

M27 180

C32 175 36 171 36 171

L36 171

L28 180

C23 184 19 188 19 188

L19 188

L27 180

Z

M42 186

L42 185

L43 186

L43 187

L43 188

L42 188

L42 186

Z

M223 187

C224 186 225 186 226 186

L227 186

L225 187

C224 188 223 188 223 188

L222 188

L223 187

Z

M302 186

C302 185 304 184 304 184

L304 184

L303 186

C302 187 300 188 300 188

L300 188

L302 186

Z

M227 186

C227 185 231 183 235 181

L243 177

L243 177

C243 178 239 180 235 182

L227 186

L227 186

Z

M311 178

C315 175 321 168 325 164

C328 159 332 155 332 155

L333 154

L332 155

C330 159 317 174 311 179

L305 184

L311 178

Z

M44 182

C44 181 45 179 46 178

L48 176

L47 178

C47 179 46 180 45 181

L44 183

L44 182

Z

M281 181

C281 180 282 179 284 178

L287 176

L287 176

C287 177 286 178 284 179

L281 181

L281 181

Z

M42 177

C42 176 44 175 44 175

L44 175

L43 177

C42 178 40 179 40 179

L40 179

L42 177

Z

M67 179

C67 178 67 177 68 176

L69 175

L69 176

C69 176 69 177 68 178

L67 180

L67 179

Z

M296 175

C296 174 298 173 298 173

L298 173

L297 175

C296 176 294 177 294 177

L294 177

L296 175

Z

M288 176

C288 175 290 174 292 172

L296 169

L296 169

C296 170 294 171 292 173

L288 176

L288 176

Z

M55 167

L63 159

L62 159

L62 158

L66 155

L71 152

L71 153

L72 154

L71 154

L70 155

L70 154

L70 154

L68 156

C67 157 62 162 57 167

L48 175

L55 167

Z

M68 156

L68 155

L66 157

C64 157 63 158 63 159

L63 159

L65 158

C66 157 67 156 68 156

Z

M248 175

C248 174 249 174 250 173

L252 172

L252 172

C252 173 251 173 250 174

L248 175

L248 175

Z

M46 172

C47 170 49 169 49 169

L49 169

L47 172

C46 173 44 174 44 174

L44 174

L46 172

Z

M70 172

C72 169 79 161 84 157

L89 154

L80 162

C76 166 72 171 71 172

L69 175

L70 172

Z

M182 170

C182 168 183 163 183 160

L184 155

L184 159

C184 161 183 165 183 169

L182 175

L182 170

Z

M306 166

L314 158

L315 158

L315 159

L307 166

L299 173

L306 166

Z

M253 172

C253 171 254 171 255 170

L257 169

L257 169

C257 170 256 170 255 171

L253 172

L253 172

Z

M37 171

C37 170 38 170 39 169

L41 168

L39 169

C38 170 38 171 37 171

L37 171

L37 171

Z

M50 169

C50 169 51 167 53 165

L57 163

L54 166

C52 168 50 169 50 169

L50 169

L50 169

Z

M258 169

C258 168 259 168 260 167

L262 166

L262 166

C262 167 261 167 260 168

L258 169

L258 169

Z

M297 169

C297 169 300 165 305 161

L313 155

L311 157

C309 158 306 161 303 164

L297 169

L297 169

Z

M44 165

C47 163 50 160 52 159

L57 157

L55 158

C54 159 50 161 47 164

L41 168

L44 165

Z

M214 165

L214 161

L215 163

C215 164 215 166 215 167

L214 169

L214 165

Z

M263 166

C263 165 264 164 266 164

L268 162

L268 163

C267 163 266 164 265 165

L263 166

L263 166

Z

M59 161

C59 160 61 159 61 159

L61 159

L60 161

C59 162 57 163 57 163

L57 163

L59 161

Z

M269 162

C269 161 272 159 276 156

C280 153 288 147 294 142

L304 133

L296 140

C289 147 279 155 272 160

L269 162

L269 162

Z

M215 157

L215 153

L216 155

C216 156 216 158 216 159

L215 161

L215 157

Z

M317 154

L320 151

L320 152

L320 152

L318 155

L315 158

L317 154

Z

M62 154

C62 153 63 153 64 152

L66 151

L66 151

C66 152 65 152 64 153

L62 154

L62 154

Z

M315 150

C318 148 320 145 320 145

L321 144

L319 147

C318 148 316 151 314 152

L312 155

L315 150

Z

M74 151

C74 151 74 150 75 150

L76 149

L76 150

C76 150 76 151 75 152

L74 152

L74 151

Z

M94 150

C95 149 98 147 100 146

L104 144

L104 144

C104 145 102 146 101 147

C99 148 96 150 94 150

L92 152

L94 150

Z

M216 149

L216 146

L217 147

C217 148 217 150 217 151

L216 153

L216 149

Z

M184 148

C184 146 185 142 185 140

L186 135

L186 138

C186 140 185 144 185 147

L184 152

L184 148

Z

M335 149

C336 148 336 147 337 147

L337 147

L336 149

C335 150 335 151 334 151

L334 151

L335 149

Z

M69 150

C69 149 70 149 71 148

L73 147

L73 147

C73 148 72 148 71 149

L69 150

L69 150

Z

M77 149

C77 148 80 147 83 145

L88 142

L88 143

C88 143 85 145 82 147

L77 150

L77 149

Z

M323 147

C324 145 325 144 326 144

L326 144

L324 147

C323 149 322 150 321 150

L321 150

L323 147

Z

M76 146

C76 145 79 143 83 141

L90 138

L91 138

L91 139

L83 142

L76 146

L76 146

Z

M338 145

L338 143

L339 143

L339 144

L338 145

L337 147

L338 145

Z

M105 144

C105 143 108 141 112 139

L119 136

L120 136

L120 137

L112 140

L105 144

L105 144

Z

M217 141

C217 140 217 137 218 135

L219 131

L219 133

C219 134 219 137 218 140

L217 144

L217 141

Z

M323 141

C323 139 324 138 325 138

L325 138

L324 140

C323 141 322 142 322 143

L321 143

L323 141

Z

M339 142

C339 141 339 140 340 139

L341 138

L341 139

C341 139 341 140 340 141

L339 143

L339 142

Z

M330 137

C330 135 331 134 332 134

L332 134

L331 137

C330 139 329 140 328 140

L328 140

L330 137

Z

M94 137

C95 136 97 135 98 135

L99 135

L96 137

C95 137 93 138 93 138

L92 138

L94 137

Z

M326 135

C327 134 327 133 328 133

L328 133

L327 135

C326 136 326 137 325 137

L325 137

L326 135

Z

M101 134

C102 133 104 132 105 132

L106 132

L103 134

C102 134 100 135 100 135

L99 135

L101 134

Z

M124 134

C125 133 126 133 127 133

L128 133

L126 134

C125 135 124 135 124 135

L123 135

L124 134

Z

M131 131

C133 130 135 129 136 129

L137 129

L133 131

C131 132 129 133 129 133

L128 133

L131 131

Z

M186 131

L186 128

L187 129

C187 130 187 132 187 132

L186 134

L186 131

Z

M332 133

C332 132 332 131 333 130

L334 129

L334 130

C334 130 334 131 333 132

L332 134

L332 133

Z

M107 131

C108 130 109 130 110 130

L111 130

L109 131

C108 132 107 132 107 132

L106 132

L107 131

Z

M306 129

C307 127 310 124 311 122

C312 120 313 118 314 118

L314 118

L312 121

C311 123 309 126 307 128

L303 133

L306 129

Z

M329 131

L329 129

L330 129

L330 130

L329 131

L328 133

L329 131

Z

M343 129

L343 128

L344 129

L344 130

L344 131

L343 131

L343 129

Z

M112 129

C113 128 114 128 115 128

L117 128

L115 129

C113 129 112 130 112 130

L111 130

L112 129

Z

M138 128

C139 128 141 127 142 127

L145 126

L143 127

C142 127 140 128 139 128

L137 129

L138 128

Z

M219 127

C219 125 220 122 220 121

L221 118

L221 120

C221 121 221 123 220 126

L219 130

L219 127

Z

M118 127

C119 126 120 126 121 126

L122 126

L120 127

C119 128 118 128 118 128

L117 128

L118 127

Z

M334 128

C334 127 334 126 335 125

L336 124

L336 125

C336 125 336 126 335 127

L334 129

L334 128

Z

M146 125

C147 124 148 124 149 124

L150 124

L148 125

C147 126 146 126 146 126

L145 126

L146 125

Z

M344 116

L345 106

L345 108

C346 111 346 120 345 124

L344 127

L344 116

Z

M127 124

C128 124 129 123 130 123

L131 123

L129 124

C128 125 127 125 126 125

L125 125

L127 124

Z

M331 125

C331 124 332 123 332 122

L333 120

L333 121

C333 122 333 123 332 124

L331 126

L331 125

Z

M187 121

L187 117

L188 119

C188 120 188 122 188 123

L187 125

L187 121

Z

M133 122

C134 122 135 121 136 121

L137 121

L135 122

C134 123 133 123 132 123

L131 123

L133 122

Z

M336 121

L336 120

L337 121

L337 122

L337 123

L336 123

L336 121

Z

M157 121

C158 120 159 120 160 120

L161 120

L159 121

C158 122 157 122 157 122

L156 122

L157 121

Z

M162 119

C163 119 165 118 166 118

L169 117

L167 118

C166 118 164 119 163 119

L161 120

L162 119

Z

M147 118

C148 118 149 117 151 117

L153 117

L150 118

C149 118 147 119 146 119

L145 119

L147 118

Z

M334 112

C334 107 334 103 335 103

L335 103

L335 109

C335 112 334 116 334 117

L333 120

L334 112

Z

M337 116

L337 113

L338 114

C338 115 338 117 338 118

L337 120

L337 116

Z

M155 116

C156 116 157 115 159 115

L161 115

L158 116

C157 116 155 117 154 117

L153 117

L155 116

Z

M170 116

C171 115 172 115 173 115

L175 115

L173 116

C171 116 170 117 170 117

L169 117

L170 116

Z

M314 116

C314 116 314 115 315 115

L316 114

L315 115

L315 117

L314 117

L314 117

L314 116

Z

M188 113

L188 110

L189 111

C189 112 189 114 189 115

L188 117

L188 113

Z

M162 114

C162 114 164 114 164 114

L166 115

L163 115

L161 115

L162 114

Z

M221 114

C221 112 222 110 222 109

L223 106

L223 108

C223 109 222 112 222 113

L221 116

L221 114

Z

M168 113

C169 113 172 112 173 112

L176 112

L173 113

C171 113 169 114 168 114

L166 114

L168 113

Z

M179 113

L180 113

L179 112

L179 111

L180 111

L182 111

L182 112

L182 113

L180 113

C180 114 179 114 178 114

L178 114

L179 113

Z

M135 108

L135 107

L136 108

C136 108 137 109 138 109

L140 110

L137 110

L135 110

L135 108

Z

M317 108

L317 107

L318 108

L318 109

L318 110

L317 110

L317 108

Z

M150 108

C152 108 155 108 157 108

L161 109

L154 109

L147 109

L150 108

Z

M164 107

C166 107 168 107 170 107

L173 108

L167 108

L161 108

L164 107

Z

M180 106

C182 106 184 106 186 106

L189 107

L183 107

L178 107

L180 106

Z

M337 105

L337 103

L338 104

C338 104 338 106 338 106

L337 108

L337 105

Z

M136 104

L136 103

L137 104

L137 105

L137 106

L136 106

L136 104

Z

M225 104

C226 104 228 104 229 104

L232 105

L227 105

L223 105

L225 104

Z

M318 102

L318 98

L319 100

C319 101 319 103 319 104

L318 106

L318 102

Z

M343 104

C343 104 343 102 342 101

L342 100

L343 101

C344 102 344 104 344 104

L343 106

L343 104

Z

M239 103

C241 103 243 103 245 103

L249 104

L242 104

L236 104

L239 103

Z

M252 102

C254 102 256 102 258 102

L262 103

L255 103

L249 103

L252 102

Z

M137 100

L137 99

L138 100

L138 101

L138 102

L137 102

L137 100

Z

M273 101

L279 101

L280 97

L281 94

L281 95

C281 96 281 98 280 99

L279 102

L273 102

L267 102

L273 101

Z

M333 100

L333 98

L334 99

C334 99 334 101 334 101

L333 103

L333 100

Z

M334 96

L333 93

L332 94

L331 95

L331 93

C330 92 330 91 330 91

C330 90 329 89 328 88

C327 88 327 87 326 86

L326 84

L327 85

L328 85

L328 86

L327 86

L329 88

L332 90

L331 92

L331 93

L332 93

L333 92

L335 95

L336 98

L336 99

L335 99

L334 96

Z

M340 97

L339 95

L339 95

C340 95 340 96 341 97

L342 99

L342 99

C341 99 341 98 340 97

Z

M138 96

L138 95

L139 96

L139 97

L139 98

L138 98

L138 96

Z

M317 96

C317 96 317 94 316 93

L316 92

L317 93

C318 94 318 96 318 96

L317 98

L317 96

Z

M139 92

L139 91

L140 92

L140 93

L140 94

L139 94

L139 92

Z

M281 92

C281 91 282 90 282 89

L283 87

L283 88

C283 89 282 90 282 92

L281 94

L281 92

Z

M311 85

L306 80

L310 84

C312 86 315 88 315 89

L316 91

L316 91

C316 91 313 88 311 85

Z

M332 86

L327 82

L331 85

C333 87 335 89 336 89

L337 91

L337 91

C337 91 334 89 332 86

Z

M140 89

C140 87 141 86 141 85

L142 83

L142 84

C142 85 141 87 141 88

L140 91

L140 89

Z

M323 82

L322 81

L323 82

C324 83 325 83 325 84

L325 84

L325 84

C324 84 324 83 323 82

Z

M284 82

C284 81 285 80 285 79

L286 77

L286 78

C286 79 285 80 285 82

L284 84

L284 82

Z

M142 80

C142 77 145 76 148 76

L151 77

L147 77

C145 77 144 78 143 79

L142 82

L142 80

Z

M318 78

L314 75

L314 75

C315 75 323 79 323 80

L323 80

L323 80

C323 80 320 79 318 78

Z

M297 76

L293 73

L293 73

C294 73 302 77 302 78

L302 78

L302 78

C302 78 299 77 297 76

Z

M158 75

C160 75 162 75 164 75

L168 76

L161 76

L155 76

L158 75

Z

M286 75

C286 74 286 73 287 72

L288 71

L290 72

L293 73

L290 73

L288 72

L287 74

L286 77

L286 75

Z

M171 74

C173 74 175 74 177 74

L181 75

L174 75

L168 75

L171 74

Z

M190 73

L194 73

L194 70

L195 68

L195 71

L195 74

L191 74

L187 74

L190 73

Z

M307 73

L305 72

L306 72

C307 72 308 73 310 73

L312 74

L310 74

C309 74 308 73 307 73

Z

M297 71

L294 70

L297 70

C298 70 301 71 302 71

L305 72

L303 72

C301 72 299 71 297 71

Z

M235 70

C236 70 238 70 239 70

L242 71

L237 71

L233 71

L235 70

Z

M262 69

C267 69 277 69 282 69

L293 70

L272 70

L252 70

L262 69

Z

M232 67

C232 66 233 65 233 64

L234 62

L234 63

C234 64 233 65 233 67

L232 69

L232 67

Z

M195 64

L195 63

L196 64

L196 65

L196 66

L195 66

L195 64

Z

M196 59

L196 57

L197 58

C197 58 197 60 197 60

L196 62

L196 59

Z

M234 61

C234 60 235 59 235 58

L236 56

L236 57

C236 58 236 59 235 60

L234 62

L234 61

Z

M197 54

L197 53

L198 54

L198 55

L198 56

L197 56

L197 54

Z

M237 52

C237 51 237 50 238 49

L239 48

L239 49

C239 49 239 50 238 51

L237 53

L237 52

Z

M198 49

C198 48 199 45 199 44

L200 42

L200 44

C200 45 199 47 199 49

L198 52

L198 49

Z

M239 46

C239 45 239 44 240 43

L241 42

L241 43

C241 43 240 44 240 46

L239 48

L239 46

Z

M200 39

C200 37 201 35 201 34

L202 32

L202 34

C202 35 201 37 201 38

L200 41

L200 39

Z

M243 35

C243 34 243 33 244 32

L245 31

L245 32

C245 32 245 33 244 34

L243 36

L243 35

Z

M203 27

C203 24 204 22 204 22

L205 21

L204 25

C203 27 203 29 202 30

L202 31

L203 27

Z

M245 30

C245 29 246 27 247 25

L248 21

L249 21

L249 22

L247 26

L245 31

L245 30

Z

M208 20

C209 20 210 19 211 19

L213 19

L211 20

C209 20 208 21 207 21

L206 21

L208 20

Z

M218 17

C219 16 220 16 221 16

L223 16

L221 17

C219 17 218 18 218 18

L217 18

L218 17

Z

M250 18

C250 17 253 11 254 11

L254 11

L252 14

C251 16 251 18 250 18

L250 18

L250 18

Z

M225 15

C226 15 228 14 229 14

L231 14

L229 15

C227 15 226 16 225 16

L223 16

L225 15

Z

M233 13

C234 13 235 12 236 12

L238 12

L236 13

C234 13 233 14 232 14

L231 14

L233 13

Z

M240 11

C241 11 242 10 243 10

L245 10

L243 11

C241 11 240 12 239 12

L238 12

L240 11

Z

M248 9

C249 9 250 8 251 8

L253 8

L251 9

C249 9 248 10 247 10

L246 10

L248 9

Z

"/>

<path fill="#04fbf9" stroke="none" d="
M89 259

C93 259 99 259 103 259

L111 260

L97 260

L83 260

L89 259

Z

M66 257

L67 257

L68 257

L68 258

L66 258

L65 258

L66 257

Z

M131 257

C131 257 133 257 133 257

L135 258

L132 258

L130 258

L131 257

Z

M144 255

L145 255

L146 255

L146 256

L144 256

L143 256

L144 255

Z

M155 253

L156 253

L157 253

L157 254

L155 254

L154 254

L155 253

Z

M60 251

C60 251 62 251 62 251

L64 252

L61 252

L59 252

L60 251

Z

M98 251

L99 251

L100 251

L100 252

L98 252

L97 252

L98 251

Z

M109 250

L110 250

L111 250

L111 251

L109 251

L108 251

L109 250

Z

M70 249

C71 249 73 249 74 249

L76 250

L72 250

L69 250

L70 249

Z

M52 248

L49 247

L55 248

C58 248 61 248 61 249

L61 249

L58 249

C56 249 53 248 52 248

Z

M89 248

C91 248 93 248 94 248

L97 249

L92 249

L87 249

L89 248

Z

M123 248

L124 248

L125 248

L125 249

L123 249

L122 249

L123 248

Z

M35 247

L35 246

L37 246

L38 246

L38 246

L38 247

L37 247

L35 248

L35 247

Z

M99 247

C100 247 102 247 103 247

L106 248

L101 248

L97 248

L99 247

Z

M44 246

L45 246

L46 246

L46 247

L44 247

L43 247

L44 246

Z

M112 246

C114 245 117 245 118 245

L121 245

L117 246

C114 247 111 247 110 247

L108 247

L112 246

Z

M134 246

L135 246

L136 246

L136 247

L134 247

L133 247

L134 246

Z

M35 244

L34 243

L35 243

C35 243 36 243 37 244

L39 245

L38 245

C37 245 36 245 35 244

Z

M125 244

C126 244 128 243 130 243

L132 243

L129 244

C128 244 126 245 125 245

L123 245

L125 244

Z

M143 244

L144 244

L145 244

L145 245

L143 245

L142 245

L143 244

Z

M134 242

L135 242

L136 242

L136 243

L134 243

L133 243

L134 242

Z

M27 240

L26 239

L28 240

C29 241 31 241 31 242

L31 242

L30 242

C30 242 29 241 27 240

Z

M139 241

C140 241 142 240 143 240

L145 240

L143 241

C141 241 140 242 139 242

L137 242

L139 241

Z

M148 239

C149 239 150 238 151 238

L153 238

L151 239

C149 239 148 240 147 240

L146 240

L148 239

Z

M156 237

C157 237 158 236 159 236

L161 236

L159 237

C157 237 156 238 155 238

L154 238

L156 237

Z

M18 233

L15 230

L18 233

C20 235 22 237 22 237

L22 237

L22 237

C22 237 20 235 18 233

Z

M167 233

C171 232 175 231 175 231

L177 231

L170 234

C166 235 162 236 162 236

L161 236

L167 233

Z

M178 230

C179 229 180 229 181 229

L182 229

L180 230

C179 231 178 231 178 231

L177 231

L178 230

Z

M184 228

C185 228 186 227 187 227

L188 227

L186 228

C185 229 184 229 183 229

L182 229

L184 228

Z

M189 226

C190 225 191 225 192 225

L193 225

L191 226

C190 227 189 227 189 227

L188 227

L189 226

Z

M11 224

C10 223 10 221 10 221

L11 220

L12 223

L13 226

L12 226

C12 226 12 225 11 224

Z

M194 224

C195 224 197 223 198 223

L201 222

L199 223

C198 223 196 224 195 224

L193 225

L194 224

Z

M202 221

C203 220 204 220 205 220

L206 220

L204 221

C203 222 202 222 202 222

L201 222

L202 221

Z

M211 217

L216 215

L217 215

L217 216

L213 217

C210 218 208 219 207 220

L206 220

L211 217

Z

M9 213

L9 207

L10 210

C10 212 10 214 10 216

L9 220

L9 213

Z

M69 218

L66 217

L72 218

C75 218 78 218 78 219

L78 219

L75 219

C73 219 70 218 69 218

Z

M104 218

C106 218 108 218 109 218

L112 219

L107 219

L102 219

L104 218

Z

M96 217

L80 216

L95 216

C104 216 113 217 116 217

L121 218

L117 218

C114 218 105 217 96 217

Z

M59 216

L57 215

L58 215

C59 215 60 216 62 216

L64 217

L62 217

C61 217 60 216 59 216

Z

M124 216

C125 216 127 216 127 216

L129 217

L126 217

L123 217

L124 216

Z

M72 215

C73 215 75 215 75 215

L77 216

L74 216

L71 216

L72 215

Z

M115 215

L113 214

L115 214

L118 214

L118 215

L118 216

L117 216

C117 216 116 215 115 215

Z

M130 215

C131 215 133 215 133 215

L135 216

L132 216

L129 216

L130 215

Z

M68 214

L69 214

L70 214

L70 215

L68 215

L67 215

L68 214

Z

M136 214

C136 214 138 214 138 214

L140 215

L137 215

L135 215

L136 214

Z

M221 213

C223 212 225 211 226 211

L227 211

L223 213

C221 214 219 215 219 215

L218 215

L221 213

Z

M50 213

L49 212

L50 212

C50 212 51 212 52 213

L54 214

L53 214

C52 214 51 214 50 213

Z

M104 213

C105 213 107 213 107 213

L109 214

L106 214

L103 214

L104 213

Z

M141 213

C141 213 143 213 143 213

L145 214

L142 214

L140 214

L141 213

Z

M58 212

L57 211

L58 211

C58 211 59 212 61 212

L63 213

L61 213

C60 213 59 213 58 212

Z

M100 212

L101 212

L102 212

L102 213

L100 213

L99 213

L100 212

Z

M146 212

L147 212

L148 212

L148 213

L146 213

L145 213

L146 212

Z

M46 211

L45 210

L46 210

C46 210 47 210 48 211

L48 212

L48 212

C48 212 47 212 46 211

Z

M93 211

L91 210

L92 210

C93 210 94 211 96 211

L98 212

L96 212

C95 212 94 211 93 211

Z

M152 211

C153 211 155 210 157 210

L159 210

L156 211

C155 211 153 212 152 212

L150 212

L152 211

Z

M54 210

L53 209

L54 210

L56 210

L56 211

L56 211

L55 211

C55 211 54 211 54 210

Z

M161 209

C162 209 163 208 164 208

L166 208

L164 209

C162 209 161 210 160 210

L159 210

L161 209

Z

M48 206

C46 205 44 202 43 201

L42 198

L42 197

L43 197

L44 199

C44 200 46 203 48 205

L52 209

L52 209

C52 209 50 208 48 206

Z

M231 209

L231 208

L233 208

L234 207

L233 208

C233 209 232 209 232 209

L231 209

L231 209

Z

M39 206

C38 205 37 204 37 203

L36 202

L36 202

C36 202 38 203 39 205

L41 208

L41 208

C40 208 40 207 39 206

Z

M169 207

C170 207 171 206 172 206

L174 206

L172 207

C170 207 169 208 168 208

L167 208

L169 207

Z

M235 207

C235 206 237 205 240 204

L244 202

L244 202

C244 203 236 207 235 207

L235 207

L235 207

Z

M77 204

C75 203 72 201 71 199

L69 197

L73 200

C75 202 78 204 79 205

L81 206

L80 206

C80 206 78 205 77 204

Z

M10 205

C10 204 10 203 11 202

L12 201

L12 202

C12 202 12 203 11 204

L10 206

L10 205

Z

M181 204

L181 203

L187 201

C191 200 194 199 194 199

L194 200

L189 202

C186 203 183 203 182 204

L181 204

L181 204

Z

M245 202

L245 201

L247 201

L248 200

L247 201

C247 202 246 202 246 202

L245 202

L245 202

Z

M35 199

C34 197 34 191 35 189

L36 187

L36 194

L36 201

L35 201

L35 201

L35 199

Z

M12 199

C12 199 13 198 14 196

L15 195

L14 197

C13 198 13 200 12 200

L12 200

L12 199

Z

M181 190

L181 179

L182 184

C182 187 182 192 182 195

L181 201

L181 190

Z

M184 199

C185 198 186 198 187 198

L188 198

L186 199

C185 200 184 200 184 200

L183 200

L184 199

Z

M196 198

C197 198 199 197 200 197

L203 196

L201 197

C200 197 198 198 197 198

L195 199

L196 198

Z

M253 198

C253 197 254 196 256 196

L259 194

L259 194

C259 195 258 196 256 197

L253 198

L253 198

Z

M41 193

L41 189

L42 191

C42 192 42 194 42 195

L41 197

L41 193

Z

M67 195

L67 194

L67 193

L68 193

L68 194

L69 196

L69 196

C68 196 68 196 67 195

Z

M207 194

C208 193 209 193 210 193

L211 193

L209 194

C208 195 207 195 207 195

L206 195

L207 194

Z

M260 194

C260 193 261 193 262 192

L264 191

L264 191

C264 192 263 192 262 193

L260 194

L260 194

Z

M203 192

C204 191 205 191 206 191

L207 191

L205 192

C204 193 203 193 203 193

L202 193

L203 192

Z

M66 189

C65 187 65 184 66 183

L67 180

L67 186

L67 192

L66 192

L66 192

L66 189

Z

M216 190

C218 189 220 188 221 188

L222 188

L218 190

C216 191 214 192 214 192

L213 192

L216 190

Z

M208 190

C209 189 210 189 211 189

L212 189

L210 190

C209 191 208 191 208 191

L207 191

L208 190

Z

M265 191

C265 190 267 189 268 188

C270 187 273 185 275 185

L278 183

L275 185

C274 186 271 188 269 189

L265 191

L265 191

Z

M213 182

C213 178 213 174 214 174

L214 174

L214 179

C214 181 213 185 213 187

L212 190

L213 182

Z

M27 180

C32 175 36 171 36 171

L36 171

L28 180

C23 184 19 188 19 188

L19 188

L27 180

Z

M42 186

L42 185

L43 186

L43 187

L43 188

L42 188

L42 186

Z

M223 187

C224 186 225 186 226 186

L227 186

L225 187

C224 188 223 188 223 188

L222 188

L223 187

Z

M227 186

C227 185 231 183 235 181

L243 177

L243 177

C243 178 239 180 235 182

L227 186

L227 186

Z

M44 182

C44 181 45 179 46 178

L48 176

L47 178

C47 179 46 180 45 181

L44 183

L44 182

Z

M281 181

C281 180 282 179 284 178

L287 176

L287 176

C287 177 286 178 284 179

L281 181

L281 181

Z

M42 177

C42 176 44 175 44 175

L44 175

L43 177

C42 178 40 179 40 179

L40 179

L42 177

Z

M67 179

C67 178 67 177 68 176

L69 175

L69 176

C69 176 69 177 68 178

L67 180

L67 179

Z

M317 173

C320 170 323 167 323 167

L323 167

L318 173

C314 176 311 179 311 179

L311 179

L317 173

Z

M288 176

C288 175 290 174 292 172

L296 169

L296 169

C296 170 294 171 292 173

L288 176

L288 176

Z

M55 167

L63 159

L62 159

L62 158

L66 155

L71 152

L71 153

L72 154

L71 154

L70 155

L70 154

L70 154

L68 156

C67 157 62 162 57 167

L48 175

L55 167

Z

M68 156

L68 155

L66 157

C64 157 63 158 63 159

L63 159

L65 158

C66 157 67 156 68 156

Z

M248 175

C248 174 249 174 250 173

L252 172

L252 172

C252 173 251 173 250 174

L248 175

L248 175

Z

M46 172

C47 170 49 169 49 169

L49 169

L47 172

C46 173 44 174 44 174

L44 174

L46 172

Z

M70 172

C72 169 79 161 84 157

L89 154

L80 162

C76 166 72 171 71 172

L69 175

L70 172

Z

M182 170

C182 168 183 163 183 160

L184 155

L184 159

C184 161 183 165 183 169

L182 175

L182 170

Z

M253 172

C253 171 254 171 255 170

L257 169

L257 169

C257 170 256 170 255 171

L253 172

L253 172

Z

M37 171

C37 170 38 170 39 169

L41 168

L39 169

C38 170 38 171 37 171

L37 171

L37 171

Z

M302 170

C302 170 303 168 305 166

L309 164

L306 167

C304 169 302 170 302 170

L302 170

L302 170

Z

M50 169

C50 169 51 167 53 165

L57 163

L54 166

C52 168 50 169 50 169

L50 169

L50 169

Z

M258 169

C258 168 259 168 260 167

L262 166

L262 166

C262 167 261 167 260 168

L258 169

L258 169

Z

M297 169

C297 169 300 165 305 161

L313 155

L311 157

C309 158 306 161 303 164

L297 169

L297 169

Z

M44 165

C47 163 50 160 52 159

L57 157

L55 158

C54 159 50 161 47 164

L41 168

L44 165

Z

M214 165

L214 161

L215 163

C215 164 215 166 215 167

L214 169

L214 165

Z

M263 166

C263 165 264 164 266 164

L268 162

L268 163

C267 163 266 164 265 165

L263 166

L263 166

Z

M59 161

C59 160 61 159 61 159

L61 159

L60 161

C59 162 57 163 57 163

L57 163

L59 161

Z

M269 162

C269 161 272 159 276 156

C280 153 288 147 294 142

L304 133

L296 140

C289 147 279 155 272 160

L269 162

L269 162

Z

M215 157

L215 153

L216 155

C216 156 216 158 216 159

L215 161

L215 157

Z

M62 154

C62 153 63 153 64 152

L66 151

L66 151

C66 152 65 152 64 153

L62 154

L62 154

Z

M315 151

C317 149 319 147 319 147

L319 147

L316 151

C314 152 312 154 312 154

L312 154

L315 151

Z

M74 151

C74 151 74 150 75 150

L76 149

L76 150

C76 150 76 151 75 152

L74 152

L74 151

Z

M94 150

C95 149 98 147 100 146

L104 144

L104 144

C104 145 102 146 101 147

C99 148 96 150 94 150

L92 152

L94 150

Z

M216 149

L216 146

L217 147

C217 148 217 150 217 151

L216 153

L216 149

Z

M184 148

C184 146 185 142 185 140

L186 135

L186 138

C186 140 185 144 185 147

L184 152

L184 148

Z

M69 150

C69 149 70 149 71 148

L73 147

L73 147

C73 148 72 148 71 149

L69 150

L69 150

Z

M77 149

C77 148 80 147 83 145

L88 142

L88 143

C88 143 85 145 82 147

L77 150

L77 149

Z

M76 146

C76 145 79 143 83 141

L90 138

L91 138

L91 139

L83 142

L76 146

L76 146

Z

M105 144

C105 143 108 141 112 139

L119 136

L120 136

L120 137

L112 140

L105 144

L105 144

Z

M217 141

C217 140 217 137 218 135

L219 131

L219 133

C219 134 219 137 218 140

L217 144

L217 141

Z

M323 141

C323 139 324 138 325 138

L325 138

L324 140

C323 141 322 142 322 143

L321 143

L323 141

Z

M94 137

C95 136 97 135 98 135

L99 135

L96 137

C95 137 93 138 93 138

L92 138

L94 137

Z

M101 134

C102 133 104 132 105 132

L106 132

L103 134

C102 134 100 135 100 135

L99 135

L101 134

Z

M124 134

C125 133 126 133 127 133

L128 133

L126 134

C125 135 124 135 124 135

L123 135

L124 134

Z

M131 131

C133 130 135 129 136 129

L137 129

L133 131

C131 132 129 133 129 133

L128 133

L131 131

Z

M186 131

L186 128

L187 129

C187 130 187 132 187 132

L186 134

L186 131

Z

M107 131

C108 130 109 130 110 130

L111 130

L109 131

C108 132 107 132 107 132

L106 132

L107 131

Z

M306 129

C307 127 310 124 311 122

C312 120 313 118 314 118

L314 118

L312 121

C311 123 309 126 307 128

L303 133

L306 129

Z

M329 131

L329 129

L330 129

L330 130

L329 131

L328 133

L329 131

Z

M112 129

C113 128 114 128 115 128

L117 128

L115 129

C113 129 112 130 112 130

L111 130

L112 129

Z

M138 128

C139 128 141 127 142 127

L145 126

L143 127

C142 127 140 128 139 128

L137 129

L138 128

Z

M219 127

C219 125 220 122 220 121

L221 118

L221 120

C221 121 221 123 220 126

L219 130

L219 127

Z

M118 127

C119 126 120 126 121 126

L122 126

L120 127

C119 128 118 128 118 128

L117 128

L118 127

Z

M146 125

C147 124 148 124 149 124

L150 124

L148 125

C147 126 146 126 146 126

L145 126

L146 125

Z

M127 124

C128 124 129 123 130 123

L131 123

L129 124

C128 125 127 125 126 125

L125 125

L127 124

Z

M331 125

C331 124 331 123 332 122

L333 121

L333 122

C333 122 333 123 332 124

L331 126

L331 125

Z

M187 121

L187 117

L188 119

C188 120 188 122 188 123

L187 125

L187 121

Z

M133 122

C134 122 135 121 136 121

L137 121

L135 122

C134 123 133 123 132 123

L131 123

L133 122

Z

M157 121

C158 120 159 120 160 120

L161 120

L159 121

C158 122 157 122 157 122

L156 122

L157 121

Z

M345 116

L345 110

L346 113

C346 115 346 117 346 119

L345 122

L345 116

Z

M162 119

C163 119 165 118 166 118

L169 117

L167 118

C166 118 164 119 163 119

L161 120

L162 119

Z

M147 118

C148 118 149 117 151 117

L153 117

L150 118

C149 118 147 119 146 119

L145 119

L147 118

Z

M155 116

C156 116 157 115 159 115

L161 115

L158 116

C157 116 155 117 154 117

L153 117

L155 116

Z

M170 116

C171 115 172 115 173 115

L175 115

L173 116

C171 116 170 117 170 117

L169 117

L170 116

Z

M314 116

C314 116 314 115 315 115

L316 114

L315 115

L315 117

L314 117

L314 117

L314 116

Z

M188 113

L188 110

L189 111

C189 112 189 114 189 115

L188 117

L188 113

Z

M162 114

C162 114 164 114 164 114

L166 115

L163 115

L161 115

L162 114

Z

M221 114

C221 112 222 110 222 109

L223 106

L223 108

C223 109 222 112 222 113

L221 116

L221 114

Z

M334 109

L334 103

L335 106

C335 108 335 110 335 112

L334 116

L334 109

Z

M168 113

C169 113 172 112 173 112

L176 112

L173 113

C171 113 169 114 168 114

L166 114

L168 113

Z

M180 112

L179 111

L180 111

L182 111

L182 112

L182 113

L182 113

C182 113 181 113 180 112

Z

M135 108

L135 107

L136 108

C136 108 137 109 138 109

L140 110

L137 110

L135 110

L135 108

Z

M317 108

L317 107

L318 108

L318 109

L318 110

L317 110

L317 108

Z

M150 108

C152 108 155 108 157 108

L161 109

L154 109

L147 109

L150 108

Z

M164 107

C166 107 168 107 170 107

L173 108

L167 108

L161 108

L164 107

Z

M180 106

C182 106 184 106 186 106

L189 107

L183 107

L178 107

L180 106

Z

M136 104

L136 103

L137 104

L137 105

L137 106

L136 106

L136 104

Z

M225 104

C226 104 228 104 229 104

L232 105

L227 105

L223 105

L225 104

Z

M318 102

L318 98

L319 100

C319 101 319 103 319 104

L318 106

L318 102

Z

M239 103

C241 103 243 103 245 103

L249 104

L242 104

L236 104

L239 103

Z

M252 102

C254 102 256 102 258 102

L262 103

L255 103

L249 103

L252 102

Z

M137 100

L137 99

L138 100

L138 101

L138 102

L137 102

L137 100

Z

M273 101

L279 101

L280 97

L281 94

L281 95

C281 96 281 98 280 99

L279 102

L273 102

L267 102

L273 101

Z

M333 99

L333 98

L334 99

L334 100

L334 101

L333 101

L333 99

Z

M138 96

L138 95

L139 96

L139 97

L139 98

L138 98

L138 96

Z

M317 96

C317 96 317 94 316 93

L316 92

L317 93

C318 94 318 96 318 96

L317 98

L317 96

Z

M331 94

C331 94 331 93 332 93

L333 92

L332 93

L332 95

L331 95

L331 95

L331 94

Z

M139 92

L139 91

L140 92

L140 93

L140 94

L139 94

L139 92

Z

M281 92

C281 91 282 90 282 89

L283 87

L283 88

C283 89 282 90 282 92

L281 94

L281 92

Z

M330 91

L329 90

L330 90

L330 90

L328 88

L326 86

L328 87

C329 88 330 89 331 90

L331 92

L330 92

C330 92 330 92 330 91

Z

M311 85

L306 80

L310 84

C312 86 315 88 315 89

L316 91

L316 91

C316 91 313 88 311 85

Z

M140 89

C140 87 141 86 141 85

L142 83

L142 84

C142 85 141 87 141 88

L140 91

L140 89

Z

M332 86

L331 85

L332 86

C333 87 334 87 334 88

L334 88

L334 88

C333 88 333 87 332 86

Z

M284 82

C284 81 285 80 285 79

L286 77

L286 78

C286 79 285 80 285 82

L284 84

L284 82

Z

M142 80

C142 77 145 76 148 76

L151 77

L147 77

C145 77 144 78 143 79

L142 82

L142 80

Z

M297 76

L293 73

L293 73

C294 73 302 77 302 78

L302 78

L302 78

C302 78 299 77 297 76

Z

M158 75

C160 75 162 75 164 75

L168 76

L161 76

L155 76

L158 75

Z

M286 75

C286 74 286 73 287 72

L288 71

L290 72

L293 73

L290 73

L288 72

L287 74

L286 77

L286 75

Z

M171 74

C173 74 175 74 177 74

L181 75

L174 75

L168 75

L171 74

Z

M190 73

L194 73

L194 70

L195 68

L195 71

L195 74

L191 74

L187 74

L190 73

Z

M307 73

L305 72

L306 72

C307 72 308 73 310 73

L312 74

L310 74

C309 74 308 73 307 73

Z

M297 71

L294 70

L297 70

C298 70 301 71 302 71

L305 72

L303 72

C301 72 299 71 297 71

Z

M235 70

C236 70 238 70 239 70

L242 71

L237 71

L233 71

L235 70

Z

M262 69

C267 69 277 69 282 69

L293 70

L272 70

L252 70

L262 69

Z

M232 67

C232 66 233 65 233 64

L234 62

L234 63

C234 64 233 65 233 67

L232 69

L232 67

Z

M195 64

L195 63

L196 64

L196 65

L196 66

L195 66

L195 64

Z

M196 59

L196 57

L197 58

C197 58 197 60 197 60

L196 62

L196 59

Z

M234 61

C234 60 235 59 235 58

L236 56

L236 57

C236 58 236 59 235 60

L234 62

L234 61

Z

M197 54

L197 53

L198 54

L198 55

L198 56

L197 56

L197 54

Z

M237 52

C237 51 237 50 238 49

L239 48

L239 49

C239 49 239 50 238 51

L237 53

L237 52

Z

M198 49

C198 48 199 45 199 44

L200 42

L200 44

C200 45 199 47 199 49

L198 52

L198 49

Z

M239 46

C239 45 239 44 240 43

L241 42

L241 43

C241 43 240 44 240 46

L239 48

L239 46

Z

M200 39

C200 37 201 35 201 34

L202 32

L202 34

C202 35 201 37 201 38

L200 41

L200 39

Z

M243 35

C243 34 243 33 244 32

L245 31

L245 32

C245 32 245 33 244 34

L243 36

L243 35

Z

M203 27

C203 24 204 22 204 22

L205 21

L204 25

C203 27 203 29 202 30

L202 31

L203 27

Z

M245 30

C245 29 246 27 247 25

L248 21

L249 21

L249 22

L247 26

L245 31

L245 30

Z

M208 20

C209 20 210 19 211 19

L213 19

L211 20

C209 20 208 21 207 21

L206 21

L208 20

Z

M218 17

C219 16 220 16 221 16

L223 16

L221 17

C219 17 218 18 218 18

L217 18

L218 17

Z

M250 18

C250 17 253 11 254 11

L254 11

L252 14

C251 16 251 18 250 18

L250 18

L250 18

Z

M225 15

C226 15 228 14 229 14

L231 14

L229 15

C227 15 226 16 225 16

L223 16

L225 15

Z

M233 13

C234 13 235 12 236 12

L238 12

L236 13

C234 13 233 14 232 14

L231 14

L233 13

Z

M240 11

C241 11 242 10 243 10

L245 10

L243 11

C241 11 240 12 239 12

L238 12

L240 11

Z

M248 9

C249 9 250 8 251 8

L253 8

L251 9

C249 9 248 10 247 10

L246 10

L248 9

Z

"/>

<path fill="#d8b470" stroke="none" d="
M89 259

C93 259 99 259 103 259

L111 260

L97 260

L83 260

L89 259

Z

M66 257

L67 257

L68 257

L68 258

L66 258

L65 258

L66 257

Z

M131 257

C131 257 133 257 133 257

L135 258

L132 258

L130 258

L131 257

Z

M144 255

L145 255

L146 255

L146 256

L144 256

L143 256

L144 255

Z

M155 253

L156 253

L157 253

L157 254

L155 254

L154 254

L155 253

Z

M60 251

C60 251 62 251 62 251

L64 252

L61 252

L59 252

L60 251

Z

M98 251

L99 251

L100 251

L100 252

L98 252

L97 252

L98 251

Z

M109 250

L110 250

L111 250

L111 251

L109 251

L108 251

L109 250

Z

M56 248

C57 248 59 248 60 248

L62 249

L58 249

L55 249

L56 248

Z

M89 248

C90 248 92 248 93 248

L96 249

L91 249

L87 249

L89 248

Z

M123 248

L124 248

L125 248

L125 249

L123 249

L122 249

L123 248

Z

M35 247

L35 246

L37 246

L38 246

L38 246

L38 247

L37 247

L35 248

L35 247

Z

M51 247

C51 247 53 247 53 247

L55 248

L52 248

L50 248

L51 247

Z

M98 247

C99 247 101 247 102 247

L104 248

L100 248

L97 248

L98 247

Z

M44 246

L45 246

L46 246

L46 247

L44 247

L43 247

L44 246

Z

M109 246

L110 246

L111 246

L111 247

L109 247

L108 247

L109 246

Z

M134 246

L135 246

L136 246

L136 247

L134 247

L133 247

L134 246

Z

M115 245

C116 245 118 245 118 245

L120 246

L117 246

L114 246

L115 245

Z

M143 244

L144 244

L145 244

L145 245

L143 245

L142 245

L143 244

Z

M128 243

C128 243 130 243 130 243

L132 244

L129 244

L127 244

L128 243

Z

M138 241

L139 241

L140 241

L140 242

L138 242

L137 242

L138 241

Z

M150 238

L151 238

L152 238

L152 239

L150 239

L149 239

L150 238

Z

M17 233

L15 230

L18 232

C20 234 21 236 21 236

L21 236

L21 236

C21 236 19 235 17 233

Z

M10 222

C10 222 10 221 10 220

L11 220

L11 222

L12 224

L11 224

L11 224

L10 222

Z

M72 218

C73 218 75 218 76 218

L78 219

L74 219

L71 219

L72 218

Z

M106 218

C107 218 109 218 110 218

L112 219

L108 219

L104 219

L106 218

Z

M9 213

L9 208

L10 210

C10 212 10 214 10 216

L9 219

L9 213

Z

M67 217

C67 217 69 217 69 217

L71 218

L68 218

L66 218

L67 217

Z

M61 216

L62 216

L63 216

L63 217

L61 217

L60 217

L61 216

Z

M90 216

C94 216 100 216 104 216

L112 217

L97 217

L83 217

L90 216

Z

M125 216

C125 216 127 216 127 216

L129 217

L126 217

L124 217

L125 216

Z

M115 215

L113 214

L115 214

L118 214

L118 215

L118 216

L117 216

C117 216 116 215 115 215

Z

M131 215

C131 215 133 215 133 215

L135 216

L132 216

L130 216

L131 215

Z

M68 214

L69 214

L70 214

L70 215

L68 215

L67 215

L68 214

Z

M137 214

L138 214

L139 214

L139 215

L137 215

L136 215

L137 214

Z

M104 213

C104 213 106 213 106 213

L108 214

L105 214

L103 214

L104 213

Z

M141 213

C141 213 143 213 143 213

L145 214

L142 214

L140 214

L141 213

Z

M95 211

L96 211

L97 211

L97 212

L95 212

L94 212

L95 211

Z

M152 211

L153 211

L154 211

L154 212

L152 212

L151 212

L152 211

Z

M38 206

L37 204

L39 205

C40 206 41 207 41 208

L41 208

L41 208

C40 208 39 207 38 206

Z

M10 205

C10 204 10 203 11 202

L12 201

L12 202

C12 202 12 203 11 204

L10 206

L10 205

Z

M42 199

L42 198

L42 197

L43 197

L43 198

L44 200

L44 200

C43 200 43 200 42 199

Z

M181 191

L181 182

L182 186

C182 189 182 193 182 196

L181 201

L181 191

Z

M34 195

L34 190

L35 192

C35 194 35 196 35 197

L34 200

L34 195

Z

M13 197

C13 197 13 196 14 196

L15 195

L14 196

L14 198

L13 198

L13 198

L13 197

Z

M67 195

L67 194

L67 193

L68 193

L68 194

L69 196

L69 196

C68 196 68 196 67 195

Z

M207 194

C208 193 209 193 210 193

L211 193

L209 194

C208 195 207 195 207 195

L206 195

L207 194

Z

M212 187

L212 184

L213 185

C213 186 213 188 213 188

L212 190

L212 187

Z

M42 186

L42 185

L43 186

L43 187

L43 188

L42 188

L42 186

Z

M65 186

L65 184

L66 185

C66 185 66 187 66 187

L65 189

L65 186

Z

M27 180

C30 177 33 174 33 174

L33 174

L28 180

C24 183 21 186 21 186

L21 186

L27 180

Z

M213 178

L213 174

L214 176

C214 177 214 179 214 180

L213 182

L213 178

Z

M240 179

L241 178

L242 178

L242 179

L240 179

L239 180

L240 179

Z

M40 179

C40 178 41 178 42 177

L44 176

L42 177

C41 178 41 179 40 179

L40 179

L40 179

Z

M317 173

C320 170 323 167 323 167

L323 167

L318 173

C314 176 311 179 311 179

L311 179

L317 173

Z

M289 175

C289 174 290 174 291 173

L293 172

L291 173

C290 174 290 175 289 175

L289 175

L289 175

Z

M46 172

C47 170 49 169 49 169

L49 169

L47 172

C46 173 44 174 44 174

L44 174

L46 172

Z

M182 172

L182 171

L183 172

L183 173

L183 174

L182 174

L182 172

Z

M56 167

C58 164 61 162 61 162

L61 162

L57 167

C54 170 51 172 51 172

L51 172

L56 167

Z

M293 172

C293 171 294 171 295 170

L297 169

L295 170

C294 171 294 172 293 172

L293 172

L293 172

Z

M302 170

C302 170 303 168 305 166

L309 164

L306 167

C304 169 302 170 302 170

L302 170

L302 170

Z

M72 169

C72 168 73 168 74 167

L76 166

L74 167

C73 168 73 169 72 169

L72 169

L72 169

Z

M300 166

C301 164 303 163 303 163

L303 163

L301 166

C300 167 298 168 298 168

L298 168

L300 166

Z

M54 165

C54 164 56 163 56 163

L56 163

L55 165

C54 166 52 167 52 167

L52 167

L54 165

Z

M214 164

L214 161

L215 162

C215 163 215 165 215 166

L214 168

L214 164

Z

M265 165

C265 164 266 164 267 163

L269 162

L267 163

C266 164 266 165 265 165

L265 165

L265 165

Z

M183 161

L183 157

L184 159

C184 160 184 162 184 163

L183 165

L183 161

Z

M81 160

C82 158 84 157 84 157

L84 157

L82 160

C81 161 79 162 79 162

L79 162

L81 160

Z

M305 162

C305 162 306 160 308 158

L312 156

L309 159

C307 161 305 162 305 162

L305 162

L305 162

Z

M66 158

C66 157 66 156 66 156

C66 155 67 155 67 154

L68 154

L68 155

C67 156 67 158 66 158

L65 160

L66 158

Z

M215 156

L215 153

L216 154

C216 155 216 157 216 158

L215 160

L215 156

Z

M275 158

C275 157 276 157 277 156

L279 155

L277 156

C276 157 276 158 275 158

L275 158

L275 158

Z

M70 154

L69 153

L70 153

L71 152

L71 154

L71 155

L70 155

C70 155 70 155 70 154

Z

M280 154

C280 153 281 153 282 152

L284 151

L282 152

C281 153 281 154 280 154

L280 154

L280 154

Z

M314 152

C315 150 317 149 317 149

L317 149

L315 152

C314 153 312 154 312 154

L312 154

L314 152

Z

M184 149

L184 148

L185 149

L185 150

L185 151

L184 151

L184 149

Z

M286 149

C286 148 288 147 288 147

L288 147

L287 149

C286 150 284 151 284 151

L284 151

L286 149

Z

M216 147

L216 146

L217 147

L217 148

L217 149

L216 149

L216 147

Z

M105 144

C105 143 106 143 107 142

L109 141

L109 141

C109 142 108 142 107 143

L105 144

L105 144

Z

M185 140

L185 137

L186 138

C186 139 186 141 186 142

L185 144

L185 140

Z

M298 138

C300 135 303 133 303 133

L303 133

L299 138

C296 141 293 143 293 143

L293 143

L298 138

Z

M217 140

L217 137

L218 138

C218 139 218 141 218 141

L217 143

L217 140

Z

M218 132

L218 131

L219 132

L219 133

L219 134

L218 134

L218 132

Z

M186 131

L186 130

L187 131

L187 132

L187 133

L186 133

L186 131

Z

M306 129

C306 128 307 128 308 127

L310 126

L308 127

C307 128 307 129 306 129

L306 129

L306 129

Z

M219 126

L219 123

L220 124

C220 125 220 127 220 127

L219 129

L219 126

Z

M126 124

L127 124

L128 124

L128 125

L126 125

L125 125

L126 124

Z

M187 121

L187 118

L188 119

C188 120 188 122 188 123

L187 125

L187 121

Z

M345 116

L345 110

L346 113

C346 115 346 117 346 119

L345 122

L345 116

Z

M146 118

L147 118

L148 118

L148 119

L146 119

L145 119

L146 118

Z

M150 117

L151 117

L152 117

L152 118

L150 118

L149 118

L150 117

Z

M170 116

C171 115 172 115 173 115

L174 115

L172 116

C171 117 170 117 170 117

L169 117

L170 116

Z

M158 115

L159 115

L160 115

L160 116

L158 116

L157 116

L158 115

Z

M188 113

L188 110

L189 111

C189 112 189 114 189 115

L188 117

L188 113

Z

M168 113

L169 113

L170 113

L170 114

L168 114

L167 114

L168 113

Z

M221 112

L221 111

L222 112

L222 113

L222 114

L221 114

L221 112

Z

M334 109

L334 103

L335 106

C335 108 335 110 335 112

L334 115

L334 109

Z

M180 112

L179 111

L180 111

L182 111

L182 112

L182 113

L182 113

C182 113 181 113 180 112

Z

M135 109

L135 108

L136 109

C137 109 137 109 137 110

L137 110

L136 110

L135 110

L135 109

Z

M222 108

L222 106

L223 107

C223 107 223 109 223 109

L222 111

L222 108

Z

M148 108

C149 108 151 108 152 108

L154 109

L150 109

L147 109

L148 108

Z

M163 107

C165 107 167 107 169 107

L172 108

L166 108

L161 108

L163 107

Z

M179 106

C180 106 182 106 183 106

L185 107

L181 107

L178 107

L179 106

Z

M224 104

C225 104 227 104 227 104

L229 105

L226 105

L223 105

L224 104

Z

M318 102

L318 98

L319 100

C319 101 319 103 319 104

L318 106

L318 102

Z

M237 103

C237 103 239 103 239 103

L241 104

L238 104

L236 104

L237 103

Z

M251 102

C253 102 255 102 257 102

L260 103

L254 103

L249 103

L251 102

Z

M268 101

C268 101 270 101 270 101

L272 102

L269 102

L267 102

L268 101

Z

M280 95

L280 94

L281 95

L281 96

L281 97

L280 97

L280 95

Z

M331 94

C331 94 331 93 332 93

L333 92

L332 93

L332 95

L331 95

L331 95

L331 94

Z

M281 92

C281 91 282 90 282 89

L283 87

L283 88

C283 89 283 90 282 91

L281 93

L281 92

Z

M329 90

C329 90 329 88 328 88

L326 86

L328 87

C329 88 330 88 330 89

L331 90

L330 91

L329 91

L329 90

Z

M140 88

L140 87

L141 88

L141 89

L141 90

L140 90

L140 88

Z

M313 87

L312 86

L313 87

C314 88 315 88 315 89

L315 89

L315 89

C314 89 314 88 313 87

Z

M332 86

L331 85

L332 86

C333 87 334 87 334 88

L334 88

L334 88

C333 88 333 87 332 86

Z

M141 84

L141 83

L142 84

L142 85

L142 86

L141 86

L141 84

Z

M146 76

C147 76 149 76 149 76

L151 77

L148 77

L145 77

L146 76

Z

M159 75

C161 75 163 75 165 75

L168 76

L162 76

L157 76

L159 75

Z

M176 74

C177 74 179 74 179 74

L181 75

L178 75

L175 75

L176 74

Z

M294 74

L293 73

L294 73

C294 73 295 73 296 74

L298 75

L297 75

C296 75 295 75 294 74

Z

M192 73

L194 73

L194 70

L195 68

L195 71

L195 74

L192 74

L190 74

L192 73

Z

M301 71

L302 71

L303 71

L303 72

L301 72

L300 72

L301 71

Z

M238 70

C238 70 240 70 240 70

L242 71

L239 71

L237 71

L238 70

Z

M295 70

C295 70 297 70 297 70

L299 71

L296 71

L294 71

L295 70

Z

M263 69

C268 69 276 69 281 69

L291 70

L273 70

L255 70

L263 69

Z

M196 59

L196 57

L197 58

C197 58 197 60 197 60

L196 62

L196 59

Z

M197 54

L197 53

L198 54

L198 55

L198 56

L197 56

L197 54

Z

M199 44

L199 43

L200 44

L200 45

L200 46

L199 46

L199 44

Z

M201 34

L201 33

L202 34

L202 35

L202 36

L201 36

L201 34

Z

M203 24

C203 23 203 22 204 22

L205 21

L204 24

L204 26

L203 26

L203 26

L203 24

Z

M225 15

L226 15

L227 15

L227 16

L225 16

L224 16

L225 15

Z

"/>

<path fill="#ffffff" stroke="none" d="
M90 259

C93 259 99 259 102 259

L109 260

L96 260

L84 260

L90 259

Z

M66 257

L67 257

L68 257

L68 258

L66 258

L65 258

L66 257

Z

M131 257

L132 257

L133 257

L133 258

L131 258

L130 258

L131 257

Z

M60 251

C60 251 62 251 62 251

L64 252

L61 252

L59 252

L60 251

Z

M56 248

C56 248 58 248 58 248

L60 249

L57 249

L55 249

L56 248

Z

M91 248

C92 248 94 248 94 248

L96 249

L93 249

L90 249

L91 248

Z

M35 247

L35 246

L36 246

L37 246

L37 247

C36 248 36 248 35 248

L35 248

L35 247

Z

M134 246

L135 246

L136 246

L136 247

L134 247

L133 247

L134 246

Z

M68 217

L69 217

L70 217

L70 218

L68 218

L67 218

L68 217

Z

M34 194

L34 193

L35 194

L35 195

L35 196

L34 196

L34 194

Z

M213 179

L213 177

L214 178

C214 178 214 180 214 180

L213 182

L213 179

Z

M305 162

C305 162 306 160 308 158

L312 156

L309 159

C307 161 305 162 305 162

L305 162

L305 162

Z

M187 120

L187 118

L188 119

C188 119 188 121 188 121

L187 123

L187 120

Z

M345 116

L345 113

L346 114

C346 115 346 117 346 117

L345 119

L345 116

Z

M334 109

L334 103

L335 106

C335 108 335 110 335 112

L334 115

L334 109

Z

M135 109

L135 108

L136 109

C137 109 137 109 137 110

L137 110

L136 110

L135 110

L135 109

Z

"/>

</svg>

